<svg width="26" height="26" viewBox="0 0 26 26" fill="none" xmlns="http://www.w3.org/2000/svg">
<g clip-path="url(#clip0_17_433)">
<path d="M0 12.4583C0 6.58542 0 3.64896 1.82448 1.82448C3.64896 0 6.58542 0 12.4583 0H13.5417C19.4146 0 22.3511 0 24.1755 1.82448C26 3.64896 26 6.58542 26 12.4583V13.5417C26 19.4146 26 22.3511 24.1755 24.1755C22.3511 26 19.4146 26 13.5417 26H12.4583C6.58542 26 3.64896 26 1.82448 24.1755C0 22.3511 0 19.4146 0 13.5417V12.4583Z" fill="#C4D656"/>
<path fill-rule="evenodd" clip-rule="evenodd" d="M7.04216 8.125H5.14589C4.6041 8.125 4.49573 8.38004 4.49573 8.66117C4.49573 9.16329 5.13861 11.6539 7.48909 14.9478C9.05605 17.1973 11.2638 18.4167 13.2728 18.4167C14.4782 18.4167 14.6273 18.1458 14.6273 17.6793V15.9792C14.6273 15.4375 14.7414 15.3294 15.1231 15.3294C15.4044 15.3294 15.8866 15.47 17.0116 16.5546C18.2973 17.84 18.5093 18.4167 19.2324 18.4167H21.1287C21.6706 18.4167 21.9415 18.1458 21.7852 17.6113C21.6142 17.0787 21.0003 16.3058 20.1858 15.3896C19.7438 14.8674 19.0808 14.3051 18.8799 14.0238C18.5987 13.6623 18.679 13.5016 18.8799 13.1803C18.8799 13.1803 21.1902 9.92656 21.4313 8.82188C21.5518 8.42018 21.4313 8.125 20.8579 8.125H18.9616C18.4794 8.125 18.2571 8.38004 18.1365 8.66117C18.1365 8.66117 17.1723 11.0111 15.8062 12.5376C15.3642 12.9794 15.1633 13.12 14.9222 13.12C14.8017 13.12 14.6272 12.9794 14.6272 12.5777V8.82188C14.6272 8.33983 14.4873 8.125 14.0854 8.125H11.1056C10.8043 8.125 10.623 8.34868 10.623 8.56074C10.623 9.01769 11.3061 9.12316 11.3765 10.4085V13.2004C11.3765 13.8125 11.2659 13.9235 11.0249 13.9235C10.382 13.9235 8.81831 11.563 7.89084 8.86202C7.70912 8.33706 7.52679 8.125 7.04216 8.125Z" fill="black"/>
</g>
<defs>
<clipPath id="clip0_17_433">
<rect width="26" height="26" fill="white"/>
</clipPath>
</defs>
</svg>
